{
    "asset" : {
        "generator" : "Khronos glTF Blender I/O v1.0.5",
        "version" : "2.0"
    },
    "scene" : 0,
    "scenes" : [
        {
            "name" : "Scene",
            "nodes" : [
                0,
                1
            ]
        }
    ],
    "nodes" : [
        {
            "name" : "Light",
            "rotation" : [
                0.16907575726509094,
                0.7558803558349609,
                -0.27217137813568115,
                0.570947527885437
            ],
            "translation" : [
                4.076245307922363,
                5.903861999511719,
                -1.0054539442062378
            ]
        },
        {
            "mesh" : 0,
            "name" : "Glasses-full-assembly",
            "rotation" : [
                1,
                0,
                0,
                -1.3435885648505064e-07
            ],
            "translation" : [
                0,
                6.942535037524067e-06,
                -5.158947715244722e-06
            ]
        }
    ],
    "materials" : [
        {
            "doubleSided" : true,
            "name" : "Material.003",
            "pbrMetallicRoughness" : {
                "baseColorFactor" : [
                    0.8000000715255737,
                    0.10711713135242462,
                    0.0933980718255043,
                    1
                ],
                "metallicFactor" : 0,
                "roughnessFactor" : 0.5
            }
        },
        {
            "doubleSided" : true,
            "name" : "Material.004",
            "pbrMetallicRoughness" : {
                "baseColorFactor" : [
                    0.800000011920929,
                    0.800000011920929,
                    0.800000011920929,
                    1
                ],
                "metallicFactor" : 0,
                "roughnessFactor" : 0.5
            }
        }
    ],
    "meshes" : [
        {
            "name" : "Glasses-full-assembly.001",
            "primitives" : [
                {
                    "attributes" : {
                        "POSITION" : 0,
                        "NORMAL" : 1
                    },
                    "indices" : 2,
                    "material" : 0
                },
                {
                    "attributes" : {
                        "POSITION" : 3,
                        "NORMAL" : 4
                    },
                    "indices" : 5,
                    "material" : 1
                }
            ]
        }
    ],
    "accessors" : [
        {
            "bufferView" : 0,
            "componentType" : 5126,
            "count" : 37356,
            "max" : [
                0.7350720167160034,
                0.20522752404212952,
                0.004865027964115143
            ],
            "min" : [
                -0.7406177520751953,
                -0.1931120902299881,
                -0.0948125347495079
            ],
            "type" : "VEC3"
        },
        {
            "bufferView" : 1,
            "componentType" : 5126,
            "count" : 37356,
            "type" : "VEC3"
        },
        {
            "bufferView" : 2,
            "componentType" : 5123,
            "count" : 37404,
            "type" : "SCALAR"
        },
        {
            "bufferView" : 3,
            "componentType" : 5126,
            "count" : 11289,
            "max" : [
                1.17699134349823,
                0.17033308744430542,
                1.215275526046753
            ],
            "min" : [
                -1.0777955055236816,
                -0.12046714872121811,
                -0.048247478902339935
            ],
            "type" : "VEC3"
        },
        {
            "bufferView" : 4,
            "componentType" : 5126,
            "count" : 11289,
            "type" : "VEC3"
        },
        {
            "bufferView" : 5,
            "componentType" : 5123,
            "count" : 11304,
            "type" : "SCALAR"
        }
    ],
    "bufferViews" : [
        {
            "buffer" : 0,
            "byteLength" : 448272,
            "byteOffset" : 0
        },
        {
            "buffer" : 0,
            "byteLength" : 448272,
            "byteOffset" : 448272
        },
        {
            "buffer" : 0,
            "byteLength" : 74808,
            "byteOffset" : 896544
        },
        {
            "buffer" : 0,
            "byteLength" : 135468,
            "byteOffset" : 971352
        },
        {
            "buffer" : 0,
            "byteLength" : 135468,
            "byteOffset" : 1106820
        },
        {
            "buffer" : 0,
            "byteLength" : 22608,
            "byteOffset" : 1242288
        }
    ],
    "buffers" : [
        {
            "byteLength" : 1264896,
            "uri" : "data:application/octet-stream;base64,"
        }
    ]
}
