{
    "asset" : {
        "generator" : "Khronos glTF Blender I/O v1.0.5",
        "version" : "2.0"
    },
    "scene" : 0,
    "scenes" : [
        {
            "name" : "Scene",
            "nodes" : [
                0
            ]
        }
    ],
    "nodes" : [
        {
            "mesh" : 0,
            "name" : "Glasses-full-assembly",
            "rotation" : [
                0.7071068286895752,
                0,
                0,
                0.7071067094802856
            ],
            "translation" : [
                0,
                6.942533218534663e-06,
                -5.1589481699920725e-06
            ]
        }
    ],
    "materials" : [
        {
            "doubleSided" : true,
            "name" : "Material.003",
            "pbrMetallicRoughness" : {
                "baseColorFactor" : [
                    0.8000000715255737,
                    0.10711713135242462,
                    0.0933980718255043,
                    1
                ],
                "metallicFactor" : 0,
                "roughnessFactor" : 0.5
            }
        },
        {
            "doubleSided" : true,
            "name" : "Material.004",
            "pbrMetallicRoughness" : {
                "baseColorFactor" : [
                    0.800000011920929,
                    0.800000011920929,
                    0.800000011920929,
                    1
                ],
                "metallicFactor" : 0,
                "roughnessFactor" : 0.5
            }
        }
    ],
    "meshes" : [
        {
            "name" : "Glasses-full-assembly.001",
            "primitives" : [
                {
                    "attributes" : {
                        "POSITION" : 0,
                        "NORMAL" : 1
                    },
                    "indices" : 2,
                    "material" : 0
                },
                {
                    "attributes" : {
                        "POSITION" : 3,
                        "NORMAL" : 4
                    },
                    "indices" : 5,
                    "material" : 1
                }
            ]
        }
    ],
    "accessors" : [
        {
            "bufferView" : 0,
            "componentType" : 5126,
            "count" : 37315,
            "max" : [
                0.7350720167160034,
                1.2198264598846436,
                0.20522722601890564
            ],
            "min" : [
                -0.7406177520751953,
                1.1201488971710205,
                -0.19311238825321198
            ],
            "type" : "VEC3"
        },
        {
            "bufferView" : 1,
            "componentType" : 5126,
            "count" : 37315,
            "type" : "VEC3"
        },
        {
            "bufferView" : 2,
            "componentType" : 5123,
            "count" : 37404,
            "type" : "SCALAR"
        },
        {
            "bufferView" : 3,
            "componentType" : 5126,
            "count" : 11270,
            "max" : [
                1.17699134349823,
                1.1732614040374756,
                0.17033278942108154
            ],
            "min" : [
                -1.0777955055236816,
                -0.09026163816452026,
                -0.12046745419502258
            ],
            "type" : "VEC3"
        },
        {
            "bufferView" : 4,
            "componentType" : 5126,
            "count" : 11270,
            "type" : "VEC3"
        },
        {
            "bufferView" : 5,
            "componentType" : 5123,
            "count" : 11304,
            "type" : "SCALAR"
        }
    ],
    "bufferViews" : [
        {
            "buffer" : 0,
            "byteLength" : 447780,
            "byteOffset" : 0
        },
        {
            "buffer" : 0,
            "byteLength" : 447780,
            "byteOffset" : 447780
        },
        {
            "buffer" : 0,
            "byteLength" : 74808,
            "byteOffset" : 895560
        },
        {
            "buffer" : 0,
            "byteLength" : 135240,
            "byteOffset" : 970368
        },
        {
            "buffer" : 0,
            "byteLength" : 135240,
            "byteOffset" : 1105608
        },
        {
            "buffer" : 0,
            "byteLength" : 22608,
            "byteOffset" : 1240848
        }
    ],
    "buffers" : [
        {
            "byteLength" : 1263456,
            "uri" : "data:application/octet-stream;base64,"
        }
    ]
}
