{
    "asset" : {
        "generator" : "Khronos glTF Blender I/O v1.5.17",
        "version" : "2.0"
    },
    "scene" : 0,
    "scenes" : [
        {
            "name" : "Scene",
            "nodes" : [
                0
            ]
        }
    ],
    "nodes" : [
        {
            "mesh" : 0,
            "name" : "Glasses-full-assembly"
        }
    ],
    "materials" : [
        {
            "doubleSided" : true,
            "name" : "Material.003",
            "pbrMetallicRoughness" : {
                "baseColorFactor" : [
                    0.8000000715255737,
                    0.10711713135242462,
                    0.0933980718255043,
                    1
                ],
                "metallicFactor" : 0,
                "roughnessFactor" : 0.5
            }
        },
        {
            "doubleSided" : true,
            "name" : "Material.004",
            "pbrMetallicRoughness" : {
                "baseColorFactor" : [
                    0.800000011920929,
                    0.800000011920929,
                    0.800000011920929,
                    1
                ],
                "metallicFactor" : 0,
                "roughnessFactor" : 0.5
            }
        }
    ],
    "meshes" : [
        {
            "name" : "Glasses-full-assembly.001",
            "primitives" : [
                {
                    "attributes" : {
                        "POSITION" : 0,
                        "NORMAL" : 1
                    },
                    "indices" : 2,
                    "material" : 0
                },
                {
                    "attributes" : {
                        "POSITION" : 3,
                        "NORMAL" : 4
                    },
                    "indices" : 5,
                    "material" : 1
                }
            ]
        }
    ],
    "accessors" : [
        {
            "bufferView" : 0,
            "componentType" : 5126,
            "count" : 37159,
            "max" : [
                0.7560849785804749,
                0.3772226572036743,
                0.06770744174718857
            ],
            "min" : [
                -0.7196047902107239,
                -0.0211169570684433,
                -0.031970228999853134
            ],
            "type" : "VEC3"
        },
        {
            "bufferView" : 1,
            "componentType" : 5126,
            "count" : 37159,
            "type" : "VEC3"
        },
        {
            "bufferView" : 2,
            "componentType" : 5123,
            "count" : 37404,
            "type" : "SCALAR"
        },
        {
            "bufferView" : 3,
            "componentType" : 5126,
            "count" : 11220,
            "max" : [
                1.1980043649673462,
                0.30457770824432373,
                0.021142270416021347
            ],
            "min" : [
                -1.0567824840545654,
                0.0137774758040905,
                -1.2423807382583618
            ],
            "type" : "VEC3"
        },
        {
            "bufferView" : 4,
            "componentType" : 5126,
            "count" : 11220,
            "type" : "VEC3"
        },
        {
            "bufferView" : 5,
            "componentType" : 5123,
            "count" : 11304,
            "type" : "SCALAR"
        }
    ],
    "bufferViews" : [
        {
            "buffer" : 0,
            "byteLength" : 445908,
            "byteOffset" : 0
        },
        {
            "buffer" : 0,
            "byteLength" : 445908,
            "byteOffset" : 445908
        },
        {
            "buffer" : 0,
            "byteLength" : 74808,
            "byteOffset" : 891816
        },
        {
            "buffer" : 0,
            "byteLength" : 134640,
            "byteOffset" : 966624
        },
        {
            "buffer" : 0,
            "byteLength" : 134640,
            "byteOffset" : 1101264
        },
        {
            "buffer" : 0,
            "byteLength" : 22608,
            "byteOffset" : 1235904
        }
    ],
    "buffers" : [
        {
            "byteLength" : 1258512,
            "uri" : "data:application/octet-stream;base64,"
        }
    ]
}
